<svg width="13" height="16" viewBox="0 0 13 16" fill="none" xmlns="http://www.w3.org/2000/svg">
<path d="M6.63143 0.783508L12.9648 4.45017V11.7835L6.63143 15.4502L0.298096 11.7835V4.45017L6.63143 0.783508ZM6.63143 10.1168C7.16186 10.1168 7.67057 9.90613 8.04564 9.53105C8.42072 9.15598 8.63143 8.64727 8.63143 8.11684C8.63143 7.58641 8.42072 7.0777 8.04564 6.70263C7.67057 6.32755 7.16186 6.11684 6.63143 6.11684C6.101 6.11684 5.59229 6.32755 5.21721 6.70263C4.84214 7.0777 4.63143 7.58641 4.63143 8.11684C4.63143 8.64727 4.84214 9.15598 5.21721 9.53105C5.59229 9.90613 6.101 10.1168 6.63143 10.1168V10.1168Z" fill="white" fill-opacity="0.3"/>
</svg>
